<!DOCTYPE svg PUBLIC "-//W3C//DTD SVG 1.1//EN" "http://www.w3.org/Graphics/SVG/1.1/DTD/svg11.dtd">

<!-- Uploaded to: SVG Repo, www.svgrepo.com, Transformed by: SVG Repo Mixer Tools -->
<svg width="800px" height="800px" viewBox="-153.6 -153.6 1331.20 1331.20" class="icon" version="1.1" xmlns="http://www.w3.org/2000/svg" fill="#000000" stroke="#000000">

<g id="SVGRepo_bgCarrier" stroke-width="0">

<path transform="translate(-153.6, -153.6), scale(41.6)" d="M16,29.898712455295026C18.535980627469772,29.57177955764558,20.396109058523734,27.483652477195022,22.244960240534645,25.71734781229593C23.805045478637865,24.226916424138015,25.163155730866844,22.542847234340048,25.843021220941417,20.495157172743916C26.478328835438546,18.581671185803422,26.201579937680556,16.5699108602996,25.946065442046844,14.569971678780146C25.686596993215677,12.539084484304025,25.39187201220915,10.528559506810453,24.344888523948992,8.769112932476201C23.15192760516133,6.7643525657548835,21.678123207075775,4.8440964997141025,19.56737464230203,3.8506377043748703C17.28560741868485,2.7766861428054055,14.69984038461904,2.733746461667801,12.1981367655318,3.052042898369425C9.353477769504968,3.4139741899733904,6.232269733021003,3.748347462497048,4.230808725522234,5.801937708622235C2.2020901857522994,7.883495425607852,1.3217950033815355,11.035601409701028,1.5971122603922456,13.929177372198078C1.852153417754831,16.609652146661976,4.410422217540425,18.336458244360532,5.650829055466657,20.726308006356458C6.806555245084053,22.953006436854675,6.749277055085027,25.808967167777254,8.62676696672997,27.472974546794013C10.603086654648884,29.22457412855256,13.380853183631517,30.23636695027396,16,29.898712455295026" fill="#9c9c9c" strokewidth="0"/>

</g>

<g id="SVGRepo_tracerCarrier" stroke-linecap="round" stroke-linejoin="round" stroke="#CCCCCC" stroke-width="4.096"/>

<g id="SVGRepo_iconCarrier">

<path d="M633.8176 637.44l60.6464-60.6336 108.608 108.608-60.6464 60.6336z" fill="#C1BDA5"/>

<path d="M742.4 764.16l-126.72-126.72 79.36-79.36 126.72 126.72-79.36 79.36z m-90.88-126.72l90.88 90.88 42.24-42.24-90.88-90.88-42.24 42.24z" fill="#231C1C"/>

<path d="M942.08 785.92c29.44 29.44-1.28 55.04-28.16 81.92-26.88 26.88-38.4 43.52-67.84 14.08l-111.36-108.8c-29.44-29.44-30.72-74.24-3.84-99.84 26.88-26.88 71.68-24.32 99.84 3.84l111.36 108.8z" fill="#d6d6d6"/>

<path d="M872.96 910.08c-11.52 0-23.04-6.4-35.84-19.2l-111.36-108.8c-16.64-16.64-25.6-37.12-26.88-60.16-1.28-23.04 6.4-43.52 23.04-58.88S759.04 640 780.8 640c21.76 1.28 43.52 10.24 60.16 26.88l111.36 108.8c10.24 10.24 15.36 21.76 15.36 33.28 0 23.04-19.2 42.24-38.4 61.44l-10.24 10.24c-16.64 16.64-29.44 29.44-46.08 29.44z m-96-243.2c-14.08 0-26.88 5.12-37.12 15.36-10.24 10.24-15.36 24.32-15.36 39.68 1.28 15.36 7.68 30.72 19.2 42.24l111.36 108.8c7.68 7.68 14.08 11.52 17.92 11.52 6.4 0 15.36-8.96 26.88-20.48l10.24-10.24c15.36-15.36 30.72-30.72 30.72-43.52 0-5.12-2.56-10.24-7.68-15.36l-111.36-108.8c-11.52-11.52-26.88-19.2-42.24-19.2h-2.56z" fill="#231C1C"/>

<path d="M454.4 410.88m-294.4 0a294.4 294.4 0 1 0 588.8 0 294.4 294.4 0 1 0-588.8 0Z" fill="#d6d6d6"/>

<path d="M454.4 718.08c-168.96 0-307.2-138.24-307.2-307.2s138.24-307.2 307.2-307.2 307.2 138.24 307.2 307.2-138.24 307.2-307.2 307.2z m0-588.8c-154.88 0-281.6 126.72-281.6 281.6s126.72 281.6 281.6 281.6 281.6-126.72 281.6-281.6-126.72-281.6-281.6-281.6z" fill="#231C1C"/>

<path d="M454.4 410.88m-217.6 0a217.6 217.6 0 1 0 435.2 0 217.6 217.6 0 1 0-435.2 0Z" fill="#ffffff"/>

<path d="M454.4 641.28c-126.72 0-230.4-103.68-230.4-229.12s103.68-230.4 230.4-230.4 229.12 103.68 229.12 230.4-102.4 229.12-229.12 229.12z m0-433.92c-112.64 0-204.8 92.16-204.8 204.8s92.16 203.52 204.8 203.52 203.52-92.16 203.52-203.52-90.88-204.8-203.52-204.8z" fill="#231C1C"/>

</g>

</svg>